<?xml version="1.0" encoding="UTF-8" standalone="no"?>
<!-- Created with Inkscape (http://www.inkscape.org/) -->

<svg
   width="297mm"
   height="210mm"
   viewBox="0 0 297 210"
   version="1.1"
   id="svg1"
   inkscape:version="1.4.2 (ebf0e940, 2025-05-08)"
   sodipodi:docname="sunburst.svg"
   xmlns:inkscape="http://www.inkscape.org/namespaces/inkscape"
   xmlns:sodipodi="http://sodipodi.sourceforge.net/DTD/sodipodi-0.dtd"
   xmlns="http://www.w3.org/2000/svg"
   xmlns:svg="http://www.w3.org/2000/svg">
  <sodipodi:namedview
     id="namedview1"
     pagecolor="#ffffff"
     bordercolor="#000000"
     borderopacity="0.25"
     inkscape:showpageshadow="2"
     inkscape:pageopacity="0.0"
     inkscape:pagecheckerboard="0"
     inkscape:deskcolor="#d1d1d1"
     inkscape:document-units="mm"
     inkscape:zoom="0.67311341"
     inkscape:cx="373.63689"
     inkscape:cy="542.99913"
     inkscape:window-width="1472"
     inkscape:window-height="894"
     inkscape:window-x="0"
     inkscape:window-y="34"
     inkscape:window-maximized="1"
     inkscape:current-layer="layer1"
     inkscape:export-bgcolor="#ffffffff" />
  <defs
     id="defs1" />
  <g
     inkscape:label="Layer 1"
     inkscape:groupmode="layer"
     id="layer1">
    <path
       style="opacity:0.847619;fill:#ffffff;stroke:#13121b;stroke-width:0.238075;stroke-opacity:1"
       d="m 217.34106,180.85791 -1.01891,-62.41257"
       id="path2-2"
       inkscape:export-filename="sketch.png"
       inkscape:export-xdpi="96"
       inkscape:export-ydpi="96" />
    <path
       style="opacity:0.847619;fill:#ffffff;stroke:#13121b;stroke-width:0.238075;stroke-opacity:1"
       d="M 222.40041,180.76128 221.3815,118.34873"
       id="path2-3-7" />
    <path
       style="opacity:0.847619;fill:#ffffff;stroke:#13121b;stroke-width:0.238075;stroke-opacity:1"
       d="m 205.19556,180.83944 -1.01891,-62.41256"
       id="path2-23" />
    <path
       style="opacity:0.847619;fill:#ffffff;stroke:#13121b;stroke-width:0.238075;stroke-opacity:1"
       d="m 211.01955,180.72721 -1.01891,-62.41255"
       id="path2-3-9" />
    <path
       style="opacity:0.847619;fill:#ffffff;stroke:#13121b;stroke-width:0.238075;stroke-opacity:1"
       d="m 191.04333,181.20959 -1.01891,-62.41257"
       id="path2-2-9" />
    <path
       style="opacity:0.847619;fill:#ffffff;stroke:#13121b;stroke-width:0.238075;stroke-opacity:1"
       d="m 199.16125,181.05053 -1.01891,-62.41255"
       id="path2-3-7-7" />
    <path
       style="opacity:0.847619;fill:#ffffff;stroke:#13121b;stroke-width:0.238075;stroke-opacity:1"
       d="m 175.11424,181.49241 -1.01891,-62.41255"
       id="path2-6" />
    <path
       style="opacity:0.847619;fill:#ffffff;stroke:#13121b;stroke-width:0.238075;stroke-opacity:1"
       d="M 182.84985,181.34117 181.83094,118.9286"
       id="path2-3-5" />
    <path
       style="opacity:0.847619;fill:#ffffff;stroke:#13121b;stroke-width:0.238075;stroke-opacity:1"
       d="m 154.46247,181.99523 -1.0189,-62.41257"
       id="path2-2-7" />
    <path
       style="opacity:0.847619;fill:#ffffff;stroke:#13121b;stroke-width:0.238075;stroke-opacity:1"
       d="m 165.25669,181.78154 -1.01891,-62.41255"
       id="path2-3-7-6" />
    <text
       xml:space="preserve"
       style="font-size:5.03925px;font-family:'Arial Narrow';-inkscape-font-specification:'Arial Narrow';text-align:start;writing-mode:lr-tb;direction:ltr;text-anchor:start;opacity:0.847619;fill:#ffffff;stroke:#13121b;stroke-width:0.238075;stroke-opacity:1"
       x="123.1964"
       y="-169.75496"
       id="text2"
       transform="matrix(0.02241052,1.0979328,-0.91042323,0.01858316,0,0)"><tspan
         sodipodi:role="line"
         id="tspan2"
         style="stroke-width:0.238075"
         x="123.1964"
         y="-169.75496">CarbonStorage_Cycling</tspan></text>
    <text
       xml:space="preserve"
       style="font-size:5.03925px;font-family:'Arial Narrow';-inkscape-font-specification:'Arial Narrow';text-align:start;writing-mode:lr-tb;direction:ltr;text-anchor:start;opacity:0.847619;fill:#ffffff;stroke:#13121b;stroke-width:0.238075;stroke-opacity:1"
       x="116.61485"
       y="-181.09111"
       id="text3"
       transform="matrix(0.02241052,1.0979328,-0.91042323,0.01858316,0,0)"><tspan
         sodipodi:role="line"
         id="tspan3"
         style="stroke-width:0.238075"
         x="116.61485"
         y="-181.09111">CleanWater_NutrientCycling</tspan></text>
    <text
       xml:space="preserve"
       style="font-size:5.03925px;font-family:'Arial Narrow';-inkscape-font-specification:'Arial Narrow';text-align:start;writing-mode:lr-tb;direction:ltr;text-anchor:start;opacity:0.847619;fill:#ffffff;stroke:#13121b;stroke-width:0.238075;stroke-opacity:1"
       x="117.04218"
       y="-191.35448"
       id="text4"
       transform="matrix(0.02241052,1.0979328,-0.91042323,0.01858316,0,0)"><tspan
         sodipodi:role="line"
         id="tspan4"
         style="stroke-width:0.238075"
         x="117.04218"
         y="-191.35448">SpeciesDiversity_FoodWeb</tspan></text>
    <text
       xml:space="preserve"
       style="font-size:5.03925px;font-family:'Arial Narrow';-inkscape-font-specification:'Arial Narrow';text-align:start;writing-mode:lr-tb;direction:ltr;text-anchor:start;opacity:0.847619;fill:#ffffff;stroke:#13121b;stroke-width:0.238075;stroke-opacity:1"
       x="140.25261"
       y="-200.23917"
       id="text5"
       transform="matrix(0.02241052,1.0979328,-0.91042323,0.01858316,0,0)"><tspan
         sodipodi:role="line"
         id="tspan5"
         style="stroke-width:0.238075"
         x="140.25261"
         y="-200.23917">HabitatIntegrity</tspan></text>
    <text
       xml:space="preserve"
       style="font-size:5.03925px;font-family:'Arial Narrow';-inkscape-font-specification:'Arial Narrow';text-align:start;writing-mode:lr-tb;direction:ltr;text-anchor:start;opacity:0.847619;fill:#ffffff;stroke:#13121b;stroke-width:0.238075;stroke-opacity:1"
       x="122.5164"
       y="-208.82776"
       id="text6"
       transform="matrix(0.02241052,1.0979328,-0.91042323,0.01858316,0,0)"><tspan
         sodipodi:role="line"
         id="tspan6"
         style="stroke-width:0.238075"
         x="122.5164"
         y="-208.82776">Fisheries_FoodProvision</tspan></text>
    <text
       xml:space="preserve"
       style="font-size:5.03925px;font-family:'Arial Narrow';-inkscape-font-specification:'Arial Narrow';text-align:start;writing-mode:lr-tb;direction:ltr;text-anchor:start;opacity:0.847619;fill:#ffffff;stroke:#13121b;stroke-width:0.238075;stroke-opacity:1"
       x="129.20659"
       y="-216.40701"
       id="text7"
       transform="matrix(0.02241052,1.0979328,-0.91042323,0.01858316,0,0)"><tspan
         sodipodi:role="line"
         id="tspan7"
         style="stroke-width:0.238075"
         x="129.20659"
         y="-216.40701">NaturalProducts_Krill</tspan></text>
    <text
       xml:space="preserve"
       style="font-size:5.03925px;font-family:'Arial Narrow';-inkscape-font-specification:'Arial Narrow';text-align:start;writing-mode:lr-tb;direction:ltr;text-anchor:start;opacity:0.847619;fill:#ffffff;stroke:#13121b;stroke-width:0.238075;stroke-opacity:1"
       x="116.56786"
       y="-229.73743"
       id="text8"
       transform="matrix(0.02241052,1.0979328,-0.91042323,0.01858316,0,0)"><tspan
         sodipodi:role="line"
         id="tspan8"
         style="stroke-width:0.238075"
         x="116.56786"
         y="-229.73743">IconicSpecies_Conservation</tspan></text>
    <text
       xml:space="preserve"
       style="font-size:5.03925px;font-family:'Arial Narrow';-inkscape-font-specification:'Arial Narrow';text-align:start;writing-mode:lr-tb;direction:ltr;text-anchor:start;opacity:0.847619;fill:#ffffff;stroke:#13121b;stroke-width:0.238075;stroke-opacity:1"
       x="121.48378"
       y="-222.52742"
       id="text9"
       transform="matrix(0.02241052,1.0979328,-0.91042323,0.01858316,0,0)"><tspan
         sodipodi:role="line"
         id="tspan9"
         style="stroke-width:0.238075"
         x="121.48378"
         y="-222.52742">SpecialPlaces_Protection</tspan></text>
    <text
       xml:space="preserve"
       style="font-size:5.03925px;font-family:'Arial Narrow';-inkscape-font-specification:'Arial Narrow';text-align:start;writing-mode:lr-tb;direction:ltr;text-anchor:start;opacity:0.847619;fill:#ffffff;stroke:#13121b;stroke-width:0.238075;stroke-opacity:1"
       x="131.64336"
       y="-236.29198"
       id="text10"
       transform="matrix(0.02241052,1.0979328,-0.91042323,0.01858316,0,0)"><tspan
         sodipodi:role="line"
         id="tspan10"
         style="stroke-width:0.238075"
         x="131.64336"
         y="-236.29198">Tourism_Recreation</tspan></text>
    <path
       style="opacity:0.847619;fill:#ffffff;stroke:#13121b;stroke-width:0.466125;stroke-opacity:1"
       id="path10"
       sodipodi:type="arc"
       sodipodi:cx="120.50066"
       sodipodi:cy="-144.87273"
       sodipodi:rx="76.254639"
       sodipodi:ry="69.708008"
       sodipodi:start="0.72662549"
       sodipodi:end="4.7135022"
       sodipodi:arc-type="slice"
       d="m 177.49494,-98.562125 a 76.254639,69.708008 0 0 1 -92.530528,15.365213 76.254639,69.708008 0 0 1 -38.478969,-78.445308 76.254639,69.708008 0 0 1 74.100107,-52.93847 l -0.0849,69.70796 z"
       transform="matrix(0.00522299,0.99998636,-0.99999958,9.2157485e-4,0,0)" />
    <path
       style="opacity:0.847619;fill:#ffffff;stroke:#13121b;stroke-width:0.51384;stroke-opacity:1"
       id="path10-6"
       sodipodi:type="arc"
       sodipodi:cx="119.09581"
       sodipodi:cy="-145.23808"
       sodipodi:rx="85.087303"
       sodipodi:ry="75.9161"
       sodipodi:start="0.72662549"
       sodipodi:end="4.7254792"
       sodipodi:arc-type="slice"
       d="M 182.69181,-94.803128 A 85.087303,75.9161 0 0 1 79.143114,-78.21129 85.087303,75.9161 0 0 1 36.67339,-164.08882 a 85.087303,75.9161 0 0 1 83.5362,-57.05886 l -1.11378,75.9096 z"
       transform="matrix(0.00558752,0.99998439,-0.9999999,4.4233178e-4,0,0)" />
    <path
       style="opacity:0.847619;fill:#ffffff;stroke:#13121b;stroke-width:0.41713;stroke-opacity:1"
       id="path10-8"
       sodipodi:type="arc"
       sodipodi:cx="118.5237"
       sodipodi:cy="-146.69121"
       sodipodi:rx="67.059868"
       sodipodi:ry="63.47776"
       sodipodi:start="0.7038862"
       sodipodi:end="4.7135022"
       sodipodi:arc-type="slice"
       d="m 169.64564,-105.60934 a 67.059868,63.47776 0 0 1 -81.470226,15.523565 67.059868,63.47776 0 0 1 -34.862605,-71.408675 67.059868,63.47776 0 0 1 65.285541,-48.67448 l -0.0746,63.47772 z"
       transform="matrix(-0.00310441,0.99999518,-0.99996823,-0.00797097,0,0)" />
    <path
       style="opacity:0.847619;fill:#ffffff;stroke:#13121b;stroke-width:0.376494;stroke-opacity:1"
       id="path10-85"
       sodipodi:type="arc"
       sodipodi:cx="120.28326"
       sodipodi:cy="-145.85947"
       sodipodi:rx="60.531723"
       sodipodi:ry="57.289524"
       sodipodi:start="0.72662549"
       sodipodi:end="4.7135022"
       sodipodi:arc-type="slice"
       d="m 165.52591,-107.7991 a 60.531723,57.289524 0 0 1 -73.451699,12.6279 60.531723,57.289524 0 0 1 -30.545004,-64.47027 60.531723,57.289524 0 0 1 58.821433,-43.50749 l -0.0674,57.28949 z"
       transform="matrix(0.00468635,0.99998902,-0.99999874,0.00158666,0,0)" />
    <path
       style="opacity:0.847619;fill:#ffffff;stroke:#13121b;stroke-width:0.330112;stroke-opacity:1"
       id="path10-8-6"
       sodipodi:type="arc"
       sodipodi:cx="119.15707"
       sodipodi:cy="-146.65695"
       sodipodi:rx="52.438854"
       sodipodi:ry="50.840691"
       sodipodi:start="0.7038862"
       sodipodi:end="4.7135022"
       sodipodi:arc-type="slice"
       d="m 159.13293,-113.75361 a 52.438854,50.840691 0 0 1 -63.707333,12.43316 52.438854,50.840691 0 0 1 -27.261536,-57.19274 52.438854,50.840691 0 0 1 51.051379,-38.98442 l -0.0584,50.84066 z"
       transform="matrix(-0.0036748,0.99999325,-0.99997336,-0.00729894,0,0)" />
    <path
       style="opacity:0.847619;fill:#ffffff;stroke:#13121b;stroke-width:0.281986;stroke-opacity:1"
       id="path10-85-6"
       sodipodi:type="arc"
       sodipodi:cx="121.22408"
       sodipodi:cy="-146.84294"
       sodipodi:rx="44.248569"
       sodipodi:ry="43.964115"
       sodipodi:start="0.72662549"
       sodipodi:end="4.7135022"
       sodipodi:arc-type="slice"
       d="m 154.29637,-117.63533 a 44.248569,43.964115 0 0 1 -53.69304,9.69068 44.248569,43.964115 0 0 1 -22.328341,-49.47464 44.248569,43.964115 0 0 1 42.998351,-33.38774 l -0.0493,43.96409 z"
       transform="matrix(0.00390303,0.99999238,-0.99999693,0.00247989,0,0)" />
    <path
       style="opacity:0.847619;fill:#ffffff;stroke:#13121b;stroke-width:0.223253;stroke-opacity:1"
       id="path10-8-6-1"
       sodipodi:type="arc"
       sodipodi:cx="119.26874"
       sodipodi:cy="-147.94913"
       sodipodi:rx="34.690704"
       sodipodi:ry="35.150017"
       sodipodi:start="0.7038862"
       sodipodi:end="4.7135022"
       sodipodi:arc-type="slice"
       d="m 145.7146,-125.20056 a 34.690704,35.150017 0 0 1 -42.14532,8.59598 34.690704,35.150017 0 0 1 -18.034752,-39.54166 34.690704,35.150017 0 0 1 33.772832,-26.95288 l -0.0386,35.14999 z"
       transform="matrix(-0.00476179,0.99998866,-0.99998138,-0.0061025,0,0)" />
    <path
       style="opacity:0.847619;fill:#ffffff;stroke:#13121b;stroke-width:0.188584;stroke-opacity:1"
       id="path10-8-6-7"
       sodipodi:type="arc"
       sodipodi:cx="118.28152"
       sodipodi:cy="-146.72391"
       sodipodi:rx="30.439093"
       sodipodi:ry="28.583517"
       sodipodi:start="0.7038862"
       sodipodi:end="4.7135022"
       sodipodi:arc-type="slice"
       d="m 141.48624,-128.22508 a 30.439093,28.583517 0 0 1 -36.98009,6.99014 30.439093,28.583517 0 0 1 -15.824456,-32.15475 30.439093,28.583517 0 0 1 29.633706,-21.91772 l -0.0339,28.5835 z"
       transform="matrix(-0.00291685,0.99999575,-0.99996639,-0.00819913,0,0)" />
    <path
       style="opacity:0.847619;fill:#ffffff;stroke:#13121b;stroke-width:0.150508;stroke-opacity:1"
       id="path10-85-6-5"
       sodipodi:type="arc"
       sodipodi:cx="119.50748"
       sodipodi:cy="-145.02167"
       sodipodi:rx="25.641651"
       sodipodi:ry="21.613003"
       sodipodi:start="0.72662549"
       sodipodi:end="4.7135022"
       sodipodi:arc-type="slice"
       d="m 138.67257,-130.66304 a 25.641651,21.613003 0 0 1 -31.11464,4.76399 25.641651,21.613003 0 0 1 -12.93907,-24.32201 25.641651,21.613003 0 0 1 24.91716,-16.4136 l -0.0285,21.61299 z"
       transform="matrix(0.0064073,0.99997947,-0.99999974,-7.2655503e-4,0,0)" />
    <path
       style="opacity:0.847619;fill:#ffffff;stroke:#13121b;stroke-width:0.0803142;stroke-opacity:1"
       id="path10-8-6-1-3"
       sodipodi:type="arc"
       sodipodi:cx="117.00756"
       sodipodi:cy="-146.11017"
       sodipodi:rx="12.714845"
       sodipodi:ry="12.411204"
       sodipodi:start="0.7038862"
       sodipodi:end="4.7135022"
       sodipodi:arc-type="slice"
       d="m 126.7005,-138.07782 a 12.714845,12.411204 0 0 1 -15.44711,3.03517 12.714845,12.411204 0 0 1 -6.6101,-13.96186 12.714845,12.411204 0 0 1 12.37843,-9.51686 l -0.0142,12.4112 z"
       transform="matrix(-0.00383881,0.99999263,-0.99997471,-0.00711157,0,0)" />
    <g
       id="g12"
       transform="rotate(88.830666,144.32304,107.17341)">
      <path
         style="opacity:0.847619;fill:#d1cbcb;fill-opacity:0.607774;stroke:none;stroke-width:0.3;stroke-opacity:0.551237"
         d="m 156.8017,10.308762 -1.6277,83.555232 -3.2554,0.542565 -10.30876,-83.012664 z"
         id="path11"
         sodipodi:nodetypes="ccccc" />
      <path
         style="opacity:0.847619;fill:#d1cbcb;fill-opacity:0.607774;stroke:none;stroke-width:0.3;stroke-opacity:0.551237"
         d="m 132.76144,13.675195 17.53272,81.711258 -3.04491,1.273001 -29.02842,-78.452047 z"
         id="path11-8"
         sodipodi:nodetypes="ccccc" />
      <g
         id="g11"
         transform="rotate(-28.811526,129.29195,17.423449)">
        <path
           style="opacity:0.847619;fill:#d1cbcb;fill-opacity:0.607774;stroke:none;stroke-width:0.3;stroke-opacity:0.551237"
           d="m 107.07408,13.122217 -1.6277,83.555232 -3.2554,0.542565 L 91.882221,14.20735 Z"
           id="path11-1"
           sodipodi:nodetypes="ccccc" />
        <path
           style="opacity:0.847619;fill:#d1cbcb;fill-opacity:0.607774;stroke:none;stroke-width:0.3;stroke-opacity:0.551237"
           d="M 83.033821,16.48865 100.56654,98.199908 97.521631,99.472909 68.493211,21.020862 Z"
           id="path11-8-1"
           sodipodi:nodetypes="ccccc" />
      </g>
    </g>
    <g
       id="g12-0"
       transform="rotate(22.816281,120.70976,88.012677)">
      <path
         style="opacity:0.847619;fill:#d1cbcb;fill-opacity:0.607774;stroke:none;stroke-width:0.3;stroke-opacity:0.551237"
         d="m 156.8017,10.308762 -1.6277,83.555232 -3.2554,0.542565 -10.30876,-83.012664 z"
         id="path11-9"
         sodipodi:nodetypes="ccccc" />
      <path
         style="opacity:0.847619;fill:#d1cbcb;fill-opacity:0.607774;stroke:none;stroke-width:0.3;stroke-opacity:0.551237"
         d="m 132.76144,13.675195 17.53272,81.711258 -3.04491,1.273001 -29.02842,-78.452047 z"
         id="path11-8-3"
         sodipodi:nodetypes="ccccc" />
      <g
         id="g11-4"
         transform="rotate(-28.811526,129.29195,17.423449)">
        <path
           style="opacity:0.847619;fill:#d1cbcb;fill-opacity:0.607774;stroke:none;stroke-width:0.3;stroke-opacity:0.551237"
           d="m 107.07408,13.122217 -1.6277,83.555232 -3.2554,0.542565 L 91.882221,14.20735 Z"
           id="path11-1-0"
           sodipodi:nodetypes="ccccc" />
        <path
           style="opacity:0.847619;fill:#d1cbcb;fill-opacity:0.607774;stroke:none;stroke-width:0.3;stroke-opacity:0.551237"
           d="M 83.033821,16.48865 100.56654,98.199908 97.521631,99.472909 68.493211,21.020862 Z"
           id="path11-8-1-7"
           sodipodi:nodetypes="ccccc" />
      </g>
    </g>
    <path
       style="opacity:0.847619;fill:#d1cbcb;fill-opacity:0.607774;stroke:none;stroke-width:0.3;stroke-opacity:0.551237"
       d="m 82.018339,38.035146 51.275471,65.992064 -2.19007,2.46893 -60.215511,-58.064318 z"
       id="path11-8-7"
       sodipodi:nodetypes="ccccc" />
    <g
       id="g11-8"
       transform="rotate(-54.548254,129.63123,77.469535)">
      <path
         style="opacity:0.847619;fill:#d1cbcb;fill-opacity:0.607774;stroke:none;stroke-width:0.3;stroke-opacity:0.551237"
         d="m 107.07408,13.122217 -1.6277,83.555232 -3.2554,0.542565 L 91.882221,14.20735 Z"
         id="path11-1-4"
         sodipodi:nodetypes="ccccc" />
      <path
         style="opacity:0.847619;fill:#d1cbcb;fill-opacity:0.607774;stroke:none;stroke-width:0.3;stroke-opacity:0.551237"
         d="M 83.033821,16.48865 100.56654,98.199908 97.521631,99.472909 68.493211,21.020862 Z"
         id="path11-8-1-0"
         sodipodi:nodetypes="ccccc" />
    </g>
    <path
       style="opacity:0.847619;fill:#d1cbcb;fill-opacity:0.607774;stroke:none;stroke-width:0.3;stroke-opacity:0.551237"
       d="m 47.596626,114.9341 83.565954,-0.92633 0.64179,3.2373 -82.658886,12.84064 z"
       id="path11-9-6"
       sodipodi:nodetypes="ccccc" />
    <path
       style="opacity:0.847619;fill:#d1cbcb;fill-opacity:0.607774;stroke:none;stroke-width:0.309844;stroke-opacity:0.551237"
       d="m 46.193072,138.86026 86.549288,-20.02146 1.45653,3.00459 -82.699591,31.4122 z"
       id="path11-8-3-2"
       sodipodi:nodetypes="ccccc" />
    <path
       style="opacity:0.847619;fill:#d1cbcb;fill-opacity:0.607774;stroke:none;stroke-width:0.326261;stroke-opacity:0.551237"
       d="m 56.06697,166.84525 79.64969,-44.39794 2.32301,2.73108 -72.49556,55.20687 z"
       id="path11-1-0-7"
       sodipodi:nodetypes="ccccc" />
    <path
       style="opacity:0.847619;fill:#d1cbcb;fill-opacity:0.607774;stroke:none;stroke-width:0.333394;stroke-opacity:0.551237"
       d="m 69.617414,187.5158 69.735186,-61.64073 3.00125,2.14873 -59.916042,70.60889 z"
       id="path11-8-1-7-4"
       sodipodi:nodetypes="ccccc" />
    <text
       xml:space="preserve"
       style="font-size:5.37086px;font-family:'Arial Narrow';-inkscape-font-specification:'Arial Narrow';text-align:start;writing-mode:lr-tb;direction:ltr;text-anchor:start;opacity:0.847619;fill:#d1cbcb;fill-opacity:0.607774;stroke:none;stroke-width:0.253742;stroke-opacity:0.551237"
       x="79.154015"
       y="-28.257132"
       id="text13"
       transform="matrix(0.63980325,0.7715008,-0.7513791,0.65693699,0,0)"><tspan
         sodipodi:role="line"
         id="tspan13"
         style="fill:#362f2f;fill-opacity:0.607774;stroke-width:0.253742"
         x="79.154015"
         y="-28.257132">ParamNameX</tspan></text>
    <text
       xml:space="preserve"
       style="font-size:5.37086px;font-family:'Arial Narrow';-inkscape-font-specification:'Arial Narrow';text-align:start;writing-mode:lr-tb;direction:ltr;text-anchor:start;opacity:0.847619;fill:#d1cbcb;fill-opacity:0.607774;stroke:none;stroke-width:0.253742;stroke-opacity:0.551237"
       x="84.964279"
       y="11.484906"
       id="text13-3"
       transform="matrix(0.77101219,0.63249875,-0.61600239,0.79165967,0,0)"><tspan
         sodipodi:role="line"
         id="tspan13-8"
         style="fill:#362f2f;fill-opacity:0.607774;stroke-width:0.253742"
         x="84.964279"
         y="11.484906">ParamNameX</tspan></text>
    <text
       xml:space="preserve"
       style="font-size:5.37086px;font-family:'Arial Narrow';-inkscape-font-specification:'Arial Narrow';text-align:start;writing-mode:lr-tb;direction:ltr;text-anchor:start;opacity:0.847619;fill:#d1cbcb;fill-opacity:0.607774;stroke:none;stroke-width:0.253742;stroke-opacity:0.551237"
       x="81.776772"
       y="1.2348064"
       id="text13-3-0"
       transform="matrix(0.77101219,0.63249875,-0.61600239,0.79165967,0,0)"><tspan
         sodipodi:role="line"
         id="tspan13-8-9"
         style="fill:#362f2f;fill-opacity:0.607774;stroke-width:0.253742"
         x="81.776772"
         y="1.2348064">ParamNameX</tspan></text>
    <g
       id="g14"
       transform="matrix(0.80872016,-0.44459147,0.40140299,0.89573346,-6.7158741,63.563404)">
      <text
         xml:space="preserve"
         style="font-size:6.35px;font-family:'Arial Narrow';-inkscape-font-specification:'Arial Narrow';text-align:start;writing-mode:lr-tb;direction:ltr;text-anchor:start;opacity:0.847619;fill:#d1cbcb;fill-opacity:0.607774;stroke:none;stroke-width:0.3;stroke-opacity:0.551237"
         x="60.106575"
         y="-12.645985"
         id="text13-9"
         transform="rotate(49.585431)"><tspan
           sodipodi:role="line"
           id="tspan13-1"
           style="fill:#362f2f;fill-opacity:0.607774;stroke-width:0.3"
           x="60.106575"
           y="-12.645985">ParamNameX</tspan></text>
      <text
         xml:space="preserve"
         style="font-size:6.35px;font-family:'Arial Narrow';-inkscape-font-specification:'Arial Narrow';text-align:start;writing-mode:lr-tb;direction:ltr;text-anchor:start;opacity:0.847619;fill:#d1cbcb;fill-opacity:0.607774;stroke:none;stroke-width:0.3;stroke-opacity:0.551237"
         x="63.63871"
         y="27.596214"
         id="text13-3-09"
         transform="rotate(38.623206)"><tspan
           sodipodi:role="line"
           id="tspan13-8-3"
           style="fill:#362f2f;fill-opacity:0.607774;stroke-width:0.3"
           x="63.63871"
           y="27.596214">ParamNameX</tspan></text>
      <text
         xml:space="preserve"
         style="font-size:6.35px;font-family:'Arial Narrow';-inkscape-font-specification:'Arial Narrow';text-align:start;writing-mode:lr-tb;direction:ltr;text-anchor:start;opacity:0.847619;fill:#d1cbcb;fill-opacity:0.607774;stroke:none;stroke-width:0.3;stroke-opacity:0.551237"
         x="59.870102"
         y="15.477466"
         id="text13-3-0-0"
         transform="rotate(38.623206)"><tspan
           sodipodi:role="line"
           id="tspan13-8-9-0"
           style="fill:#362f2f;fill-opacity:0.607774;stroke-width:0.3"
           x="59.870102"
           y="15.477466">ParamNameX</tspan></text>
    </g>
    <text
       xml:space="preserve"
       style="font-size:4.59131px;font-family:'Arial Narrow';-inkscape-font-specification:'Arial Narrow';text-align:start;writing-mode:lr-tb;direction:ltr;text-anchor:start;opacity:0.847619;fill:#d1cbcb;fill-opacity:0.607774;stroke:none;stroke-width:0.216912;stroke-opacity:0.551237"
       x="-82.677635"
       y="187.83968"
       id="text13-2"
       transform="matrix(0.65764741,-0.7588962,0.69866824,0.71433921,0,0)"
       inkscape:export-filename="sunburst-sketch.png"
       inkscape:export-xdpi="96"
       inkscape:export-ydpi="96"><tspan
         sodipodi:role="line"
         id="tspan13-7"
         style="fill:#362f2f;fill-opacity:0.607774;stroke-width:0.216912"
         x="-82.677635"
         y="187.83968">ParamName1</tspan></text>
  </g>
</svg>
